<svg width="11" height="11" viewBox="0 0 11 11" fill="none" xmlns="http://www.w3.org/2000/svg">
<path d="M5.75 10.5C5.12622 10.5 4.50855 10.3771 3.93225 10.1384C3.35596 9.89972 2.83232 9.54984 2.39124 9.10876C1.95016 8.66768 1.60028 8.14404 1.36157 7.56775C1.12286 6.99145 1 6.37378 1 5.75C1 5.12622 1.12286 4.50855 1.36157 3.93225C1.60028 3.35596 1.95016 2.83232 2.39124 2.39124C2.83232 1.95016 3.35596 1.60028 3.93225 1.36157C4.50855 1.12286 5.12622 1 5.75 1C7.00978 1 8.21796 1.50045 9.10876 2.39124C9.99955 3.28204 10.5 4.49022 10.5 5.75C10.5 7.00978 9.99955 8.21796 9.10876 9.10876C8.21796 9.99955 7.00978 10.5 5.75 10.5Z" fill="#20446C" stroke="#20446C" stroke-width="0.678571"/>
<path d="M8.36316 3.9416L8.31605 3.90364L8.26898 3.94164L5.03641 6.5514L3.72995 5.50026L3.68283 5.46235L3.6358 5.50037L2.95286 6.05229L2.88052 6.11075L2.95299 6.16905L4.99069 7.80844L5.03778 7.84632L5.08481 7.80836L9.04711 4.60949L9.11946 4.55109L9.04706 4.49274L8.36316 3.9416Z" fill="white" stroke="white" stroke-width="0.15"/>
</svg>
