<svg width="36" height="36" viewBox="0 0 36 36" fill="none" xmlns="http://www.w3.org/2000/svg">
<circle cx="18" cy="18" r="18" fill="#FDF2EA"/>
<path d="M13.5599 22.0323H13.5598L13.5601 22.0352C13.5968 22.3652 13.3026 22.6641 12.9281 22.6641H8.5926C8.22101 22.6641 7.9608 22.3672 7.9608 22.0323C7.9608 21.6607 8.25769 21.4005 8.5926 21.4005H12.9281C13.2997 21.4005 13.5599 21.6974 13.5599 22.0323ZM17.1862 14.1866H10.5668C10.1952 14.1866 9.93501 13.8897 9.93501 13.5548C9.93501 13.2209 10.2329 12.923 10.5668 12.923H17.225C17.5965 12.923 17.8568 13.2199 17.8568 13.5548C17.8568 13.8877 17.5598 14.1866 17.1862 14.1866ZM12.9281 18.406H6.6571C6.32219 18.406 6.02529 18.1458 6.02529 17.7742C6.02529 17.4026 6.32219 17.1424 6.6571 17.1424H12.9281C13.2997 17.1424 13.5599 17.4393 13.5599 17.7742C13.5599 18.1458 13.263 18.406 12.9281 18.406Z" fill="#F0792E" stroke="#F0792E" stroke-width="0.0525344"/>
<path d="M14.4256 24.4581L14.9959 23.284H27.7526C28.3029 23.284 28.7329 22.8592 28.7329 22.3424V13.2068C28.7329 12.6876 28.2616 12.2652 27.7526 12.2652H20.3479L20.9186 11.0904H27.7526C28.9437 11.0904 29.9078 12.0199 29.9078 13.2068V22.3424C29.9078 23.4916 28.9429 24.4587 27.753 24.4589C27.7529 24.4589 27.7527 24.4589 27.7526 24.4589L21.4434 24.4202L21.4424 24.4202L14.4256 24.4581Z" fill="#F0792E" stroke="#FDF2EA" stroke-width="0.18"/>
<path d="M27.2901 16.0325C26.0127 15.6841 25.1223 14.7938 24.774 13.5164H19.6255L15.4448 22.0326H24.774C25.1223 20.7551 26.0127 19.9035 27.2901 19.5164V16.0325Z" fill="#FDF2EA" stroke="#F0792E" stroke-linejoin="round"/>
<path d="M22.8176 16.4857H23.4114C23.515 16.4857 23.6143 16.4445 23.6876 16.3713C23.7608 16.298 23.802 16.1987 23.802 16.0951C23.802 15.9915 23.7608 15.8921 23.6876 15.8189C23.6143 15.7456 23.515 15.7045 23.4114 15.7045H20.6935C20.5899 15.7045 20.4905 15.7456 20.4173 15.8189C20.344 15.8921 20.3029 15.9915 20.3029 16.0951C20.3029 16.1987 20.344 16.298 20.4173 16.3713C20.4905 16.4445 20.5899 16.4857 20.6935 16.4857H21.4712C21.7538 16.4857 22.0048 16.6509 22.1405 16.8836H20.6935C20.5899 16.8836 20.4905 16.9248 20.4173 16.9981C20.344 17.0713 20.3029 17.1707 20.3029 17.2743C20.3029 17.3779 20.344 17.4772 20.4173 17.5505C20.4905 17.6237 20.5899 17.6649 20.6935 17.6649H22.1391C22.005 17.8846 21.7576 18.026 21.4712 18.026H20.6935V18.0259L20.6908 18.026C20.6124 18.0282 20.5363 18.0535 20.4722 18.0987C20.4081 18.1438 20.3587 18.2069 20.3302 18.28C20.3018 18.3531 20.2955 18.433 20.3122 18.5096C20.3289 18.5863 20.3678 18.6563 20.4241 18.711L20.424 18.711L20.425 18.7119L22.3684 20.5503C22.3685 20.5504 22.3686 20.5504 22.3686 20.5505C22.4057 20.5859 22.4494 20.6136 22.4972 20.6321C22.5451 20.6506 22.5962 20.6595 22.6475 20.6582C22.6989 20.6569 22.7494 20.6455 22.7963 20.6246C22.8433 20.6038 22.8856 20.5738 22.9209 20.5366L22.9209 20.5366L22.9218 20.5356C22.9925 20.459 23.0305 20.3578 23.0276 20.2536C23.0247 20.1493 22.9811 20.0503 22.9063 19.9778L22.9056 19.9771L21.6627 18.7959C22.299 18.7206 22.8196 18.2737 22.9782 17.6649H23.4114C23.515 17.6649 23.6143 17.6237 23.6876 17.5505C23.7608 17.4772 23.802 17.3779 23.802 17.2743C23.802 17.1707 23.7608 17.0713 23.6876 16.9981C23.6143 16.9248 23.515 16.8836 23.4114 16.8836H22.9781C22.9421 16.7445 22.8881 16.6107 22.8176 16.4857Z" fill="#F0792E" stroke="#F0792E" stroke-width="0.191631"/>
<g clip-path="url(#clip0_78280_12531)">
<circle cx="18" cy="18" r="18" fill="#FDF2EA"/>
<path d="M27.248 15.8255C27.2433 16.1821 27.4139 16.5971 27.6702 16.9547C27.9266 17.3123 28.2583 17.5996 28.5753 17.7005C28.5944 17.6978 28.6136 17.6952 28.6302 17.6939V17.6936C28.8196 17.6793 28.9847 17.821 28.999 18.0103C28.9996 18.019 29 18.0277 29 18.0363V18.0367V23.2178C29 23.35 28.9253 23.4649 28.8158 23.5224L24.7184 26.1055L24.719 26.1064C24.5951 26.1845 24.4405 26.1737 24.3298 26.091L20.2325 23.5078L20.2318 23.5086C20.1281 23.4434 20.0714 23.3319 20.0713 23.2178V18.0363C20.0713 17.8464 20.2252 17.6925 20.4151 17.6925C20.4348 17.6925 20.4543 17.6942 20.4731 17.6974L20.496 17.7005C20.813 17.5996 21.1447 17.3123 21.4011 16.9547C21.6633 16.589 21.8357 16.1632 21.8227 15.8012H21.8216C21.8147 15.6115 21.963 15.4522 22.1527 15.4453L22.1651 15.4451H26.9061C27.096 15.4451 27.2499 15.599 27.2499 15.7889C27.2499 15.8012 27.2492 15.8135 27.248 15.8255ZM27.1117 17.3548C26.8458 16.9838 26.651 16.5513 26.5862 16.1326H22.485C22.4202 16.5513 22.2254 16.9838 21.9595 17.3548C21.6384 17.8027 21.2037 18.1731 20.7589 18.334V23.0293L24.5355 25.4105L28.3122 23.0293V18.334C27.8673 18.1731 27.4327 17.8026 27.1116 17.3548H27.1117Z" fill="#F0792E" stroke="#F0792E" stroke-width="0.2"/>
<path d="M26.5144 19.9234C26.6486 19.7892 26.6486 19.5715 26.5144 19.4373C26.3803 19.3031 26.1625 19.3031 26.0283 19.4373L24.0281 21.4375L23.0433 20.4527C22.9091 20.3185 22.6914 20.3185 22.5572 20.4527C22.423 20.5869 22.423 20.8046 22.5572 20.9388L23.7809 22.1625L23.785 22.1667C23.9192 22.3009 24.1369 22.3009 24.2712 22.1667L26.5144 19.9235V19.9234Z" fill="#F0792E" stroke="#F0792E" stroke-width="0.2"/>
<path d="M8.14197 10.7937H25.8504C26.1648 10.7937 26.4504 10.9221 26.6571 11.1289C26.8639 11.3356 26.9923 11.6213 26.9923 11.9355V15.7886C26.9923 15.9785 26.8384 16.1324 26.6485 16.1324H22.4851C22.4203 16.5511 22.2255 16.9837 21.9596 17.3546C21.6385 17.8025 21.2038 18.1731 20.7588 18.3339V23.0291L22.4832 24.1162L22.484 24.1154C22.6446 24.2166 22.6926 24.4289 22.5915 24.5895C22.5262 24.6932 22.4147 24.7499 22.3006 24.75H8.14184C7.82744 24.75 7.54192 24.6216 7.33515 24.4148C7.12839 24.2081 7 23.9224 7 23.6082V11.9355C7 11.6211 7.12839 11.3356 7.33515 11.1289C7.54192 10.9221 7.82757 10.7937 8.14184 10.7937H8.14197ZM25.8504 11.4813H8.14197C8.01732 11.4813 7.90375 11.5326 7.82138 11.615C7.73888 11.6975 7.68771 11.811 7.68771 11.9355V23.6082C7.68771 23.7328 7.73901 23.8464 7.82138 23.9287C7.90375 24.0111 8.01745 24.0624 8.14197 24.0624H21.1128L20.2556 23.522C20.1461 23.4646 20.0714 23.3497 20.0714 23.2174V18.0364V18.036C20.0714 18.0273 20.0718 18.0187 20.0724 18.0099C20.0867 17.8206 20.252 17.6788 20.4412 17.6932V17.6936C20.4577 17.6948 20.4769 17.6975 20.4961 17.7002C20.8131 17.5992 21.1449 17.3118 21.4011 16.9542C21.6575 16.5966 21.828 16.1817 21.8233 15.825C21.822 15.813 21.8214 15.8008 21.8214 15.7884C21.8214 15.5985 21.9753 15.4446 22.1652 15.4446H26.3048V11.9353C26.3048 11.8106 26.2535 11.6971 26.1712 11.6147C26.0888 11.5323 25.9751 11.481 25.8506 11.481L25.8504 11.4813Z" fill="#F0792E" stroke="#F0792E" stroke-width="0.2"/>
<path d="M7.34392 13.1006H26.6486C26.8385 13.1006 26.9924 13.2545 26.9924 13.4444V15.7888C26.9924 15.9787 26.8385 16.1326 26.6486 16.1326H22.4861L22.4797 16.1721C22.456 16.3089 22.4191 16.4453 22.3715 16.5784V16.5787C22.3206 16.7211 22.1854 16.8092 22.0421 16.8067H7.34379C7.15391 16.8067 7 16.6528 7 16.4629V13.4444C7 13.2545 7.15391 13.1006 7.34379 13.1006H7.34392ZM26.305 13.7882H7.68771V16.1192H21.7907C21.7952 16.0981 21.7993 16.0773 21.8029 16.0566C21.817 15.9754 21.8242 15.898 21.8234 15.8256C21.8222 15.8135 21.8215 15.8013 21.8215 15.7889C21.8215 15.599 21.9754 15.4451 22.1653 15.4451H26.305V13.7883V13.7882Z" fill="#F0792E" stroke="#F0792E" stroke-width="0.2"/>
<path d="M10.0025 18.644H15.0905C15.2804 18.644 15.4343 18.798 15.4343 18.9878V21.881C15.4343 22.0709 15.2804 22.2248 15.0905 22.2248H10.0025C9.8126 22.2248 9.65869 22.0709 9.65869 21.881V18.9878C9.65869 18.798 9.8126 18.644 10.0025 18.644Z" fill="#F0792E"/>
</g>
<defs>
<clipPath id="clip0_78280_12531">
<rect width="36" height="36" fill="white"/>
</clipPath>
</defs>
</svg>
