<svg width="8" height="9" viewBox="0 0 8 9" fill="none" xmlns="http://www.w3.org/2000/svg">
<g clip-path="url(#clip0_78280_12664)">
<path d="M5.1374 7.85397L5.04079 8.30369C4.75096 8.43396 4.51944 8.5331 4.34704 8.60127C4.17445 8.66965 3.97392 8.70366 3.74544 8.70366C3.39457 8.70366 3.12165 8.60578 2.92701 8.41137C2.73236 8.21619 2.63501 7.96885 2.63501 7.66881C2.63501 7.55265 2.64207 7.43318 2.65676 7.31146C2.67157 7.18959 2.69512 7.05234 2.72734 6.89893L3.08955 5.43905C3.12178 5.29926 3.14917 5.1668 3.1711 5.04155C3.19335 4.91707 3.20407 4.80254 3.20407 4.69944C3.20407 4.51301 3.17017 4.3826 3.10269 4.30928C3.03521 4.23618 2.90643 4.19906 2.71526 4.19906C2.62162 4.19906 2.52538 4.21613 2.42728 4.24916C2.32875 4.28233 2.24454 4.31436 2.17383 4.34414L2.27069 3.89407C2.50797 3.78406 2.73478 3.68985 2.95173 3.61166C3.16869 3.53326 3.37368 3.49403 3.56759 3.49403C3.91604 3.49403 4.18493 3.58993 4.37375 3.78173C4.56257 3.97367 4.65695 4.22249 4.65695 4.5291C4.65695 4.59254 4.65075 4.70431 4.63743 4.86407C4.62442 5.02419 4.60019 5.1709 4.56486 5.30434L4.2042 6.75836C4.17464 6.87514 4.14806 7.00866 4.12494 7.15889C4.10108 7.30814 4.08968 7.42218 4.08968 7.49867C4.08968 7.69174 4.12748 7.82356 4.20327 7.89363C4.27962 7.9637 4.41112 7.99856 4.59789 7.99856C4.68558 7.99856 4.78535 7.98085 4.89621 7.94606C5.00677 7.91127 5.08739 7.88072 5.1374 7.85397ZM5.22887 1.74956C5.22887 2.00289 5.14502 2.21925 4.97653 2.39715C4.80846 2.57568 4.60595 2.66502 4.36904 2.66502C4.13139 2.66502 3.92837 2.57568 3.75839 2.39715C3.58872 2.21918 3.5037 2.00289 3.5037 1.74956C3.5037 1.49672 3.58872 1.28001 3.75839 1.09985C3.92806 0.91998 4.13145 0.830078 4.36904 0.830078C4.60589 0.830078 4.80846 0.920191 4.97653 1.09985C5.14515 1.28001 5.22887 1.49679 5.22887 1.74956Z" fill="#F0792E"/>
</g>
<defs>
<clipPath id="clip0_78280_12664">
<rect width="6.91438" height="7.87358" fill="white" transform="translate(0.244141 0.830078)"/>
</clipPath>
</defs>
</svg>
