<svg width="36" height="36" viewBox="0 0 36 36" fill="none" xmlns="http://www.w3.org/2000/svg">
<g clip-path="url(#clip0_78280_12559)">
<circle cx="18" cy="18" r="18" fill="#FDF2EA"/>
<path d="M16.5335 19.1623C16.5335 19.3612 16.4545 19.552 16.3139 19.6926C16.1732 19.8333 15.9825 19.9123 15.7835 19.9123H7.2688C7.06989 19.9123 6.87912 19.8333 6.73847 19.6926C6.59782 19.552 6.5188 19.3612 6.5188 19.1623C6.5188 18.9634 6.59782 18.7726 6.73847 18.632C6.87912 18.4913 7.06989 18.4123 7.2688 18.4123H15.7835C15.9825 18.4123 16.1732 18.4913 16.3139 18.632C16.4545 18.7726 16.5335 18.9634 16.5335 19.1623ZM15.7835 21.4123H9.5188C9.31989 21.4123 9.12912 21.4913 8.98847 21.632C8.84782 21.7726 8.7688 21.9634 8.7688 22.1623C8.7688 22.3612 8.84782 22.552 8.98847 22.6926C9.12912 22.8333 9.31989 22.9123 9.5188 22.9123H15.7835C15.9825 22.9123 16.1732 22.8333 16.3139 22.6926C16.4545 22.552 16.5335 22.3612 16.5335 22.1623C16.5335 21.9634 16.4545 21.7726 16.3139 21.632C16.1732 21.4913 15.9825 21.4123 15.7835 21.4123ZM15.7835 24.4123H11.7688C11.5699 24.4123 11.3791 24.4913 11.2385 24.632C11.0978 24.7726 11.0188 24.9634 11.0188 25.1623C11.0188 25.3612 11.0978 25.552 11.2385 25.6926C11.3791 25.8333 11.5699 25.9123 11.7688 25.9123H15.7835C15.9825 25.9123 16.1732 25.8333 16.3139 25.6926C16.4545 25.552 16.5335 25.3612 16.5335 25.1623C16.5335 24.9634 16.4545 24.7726 16.3139 24.632C16.1732 24.4913 15.9825 24.4123 15.7835 24.4123ZM19.7585 18.9628L22.775 15.9501C22.9117 15.8086 22.9873 15.6192 22.9856 15.4225C22.9838 15.2259 22.905 15.0378 22.7659 14.8987C22.6269 14.7596 22.4387 14.6808 22.2421 14.6791C22.0455 14.6773 21.856 14.7529 21.7145 14.8896L18.6995 17.9001C18.6279 17.9692 18.5708 18.052 18.5315 18.1435C18.4922 18.235 18.4715 18.3334 18.4706 18.433C18.4697 18.5326 18.4887 18.6314 18.5264 18.7235C18.5641 18.8157 18.6198 18.8994 18.6903 18.9699C18.7607 19.0403 18.8444 19.096 18.9366 19.1337C19.0288 19.1714 19.1275 19.1904 19.2271 19.1895C19.3267 19.1886 19.4251 19.1679 19.5166 19.1286C19.6081 19.0893 19.6909 19.0322 19.76 18.9606L19.7585 18.9628ZM19.9783 10.2148V8.81531H20.6878C20.8867 8.81531 21.0775 8.73629 21.2181 8.59564C21.3588 8.45499 21.4378 8.26422 21.4378 8.06531C21.4378 7.8664 21.3588 7.67563 21.2181 7.53498C21.0775 7.39433 20.8867 7.31531 20.6878 7.31531H17.7703C17.5714 7.31531 17.3806 7.39433 17.24 7.53498C17.0993 7.67563 17.0203 7.8664 17.0203 8.06531C17.0203 8.26422 17.0993 8.45499 17.24 8.59564C17.3806 8.73629 17.5714 8.81531 17.7703 8.81531H18.4798V10.2133C16.7419 10.3669 15.0979 11.0693 13.7855 12.2188L12.8 11.2333C12.6594 11.0925 12.4686 11.0133 12.2696 11.0131C12.0706 11.013 11.8796 11.0919 11.7388 11.2326C11.598 11.3732 11.5188 11.564 11.5186 11.763C11.5185 11.9621 11.5974 12.153 11.738 12.2938L12.755 13.3101C12.1354 14.0935 11.663 14.9829 11.3608 15.9351C11.3076 16.1228 11.3298 16.3239 11.4225 16.4957C11.5152 16.6674 11.6712 16.7962 11.8573 16.8548C12.0435 16.9133 12.2452 16.897 12.4195 16.8093C12.5938 16.7216 12.7271 16.5694 12.791 16.3851C13.2209 15.0166 14.0769 13.8214 15.2342 12.9741C16.3915 12.1267 17.7894 11.6715 19.2238 11.6751H19.2298H19.2358C21.027 11.6757 22.7446 12.3878 24.0108 13.6548C25.2769 14.9218 25.9879 16.6399 25.9873 18.4311C25.9867 20.2223 25.2746 21.9399 24.0076 23.206C22.7406 24.4722 21.0225 25.1832 19.2313 25.1826C19.1008 25.1826 18.9695 25.1758 18.818 25.1683C18.621 25.1614 18.4291 25.2323 18.284 25.3658C18.1388 25.4993 18.0521 25.6846 18.0425 25.8816C18.0352 26.0814 18.107 26.2761 18.2424 26.4232C18.3778 26.5704 18.5658 26.6582 18.7655 26.6676C18.9208 26.6751 19.0768 26.6826 19.2313 26.6826C21.3628 26.6952 23.4164 25.8823 24.9618 24.4144C26.5072 22.9464 27.4246 20.9373 27.5215 18.808C27.6185 16.6787 26.8876 14.5945 25.4819 12.9922C24.0763 11.3899 22.1051 10.3937 19.9813 10.2126L19.9783 10.2148Z" fill="#F0792E"/>
</g>
<defs>
<clipPath id="clip0_78280_12559">
<rect width="36" height="36" fill="white"/>
</clipPath>
</defs>
</svg>
