<svg width="36" height="36" viewBox="0 0 36 36" fill="none" xmlns="http://www.w3.org/2000/svg">
<circle cx="18" cy="18" r="18" fill="#FDF2EA"/>
<path d="M13.5599 22.0323H13.5598L13.5601 22.0352C13.5968 22.3652 13.3026 22.6641 12.9281 22.6641H8.5926C8.22101 22.6641 7.9608 22.3672 7.9608 22.0323C7.9608 21.6607 8.25769 21.4005 8.5926 21.4005H12.9281C13.2997 21.4005 13.5599 21.6974 13.5599 22.0323ZM17.1862 14.1866H10.5668C10.1952 14.1866 9.93501 13.8897 9.93501 13.5548C9.93501 13.2209 10.2329 12.923 10.5668 12.923H17.225C17.5965 12.923 17.8568 13.2199 17.8568 13.5548C17.8568 13.8877 17.5598 14.1866 17.1862 14.1866ZM12.9281 18.406H6.6571C6.32219 18.406 6.02529 18.1458 6.02529 17.7742C6.02529 17.4026 6.32219 17.1424 6.6571 17.1424H12.9281C13.2997 17.1424 13.5599 17.4393 13.5599 17.7742C13.5599 18.1458 13.263 18.406 12.9281 18.406Z" fill="#F0792E" stroke="#F0792E" stroke-width="0.0525344"/>
<path d="M14.4256 24.4581L14.9959 23.284H27.7526C28.3029 23.284 28.7329 22.8592 28.7329 22.3424V13.2068C28.7329 12.6876 28.2616 12.2652 27.7526 12.2652H20.3479L20.9186 11.0904H27.7526C28.9437 11.0904 29.9078 12.0199 29.9078 13.2068V22.3424C29.9078 23.4916 28.9428 24.4588 27.7528 24.4589C27.7528 24.4589 27.7527 24.4589 27.7526 24.4589L21.4434 24.4202L21.4424 24.4202L14.4256 24.4581Z" fill="#F0792E" stroke="#FDF2EA" stroke-width="0.18"/>
<path d="M27.2901 16.0325C26.0127 15.6841 25.1223 14.7938 24.774 13.5164H19.6255L15.4448 22.0326H24.774C25.1223 20.7551 26.0127 19.9035 27.2901 19.5164V16.0325Z" fill="#FDF2EA" stroke="#F0792E" stroke-linejoin="round"/>
<path d="M22.8176 16.4857H23.4114C23.515 16.4857 23.6143 16.4445 23.6876 16.3713C23.7608 16.298 23.802 16.1987 23.802 16.0951C23.802 15.9915 23.7608 15.8921 23.6876 15.8189C23.6143 15.7456 23.515 15.7045 23.4114 15.7045H20.6935C20.5899 15.7045 20.4905 15.7456 20.4173 15.8189C20.344 15.8921 20.3029 15.9915 20.3029 16.0951C20.3029 16.1987 20.344 16.298 20.4173 16.3713C20.4905 16.4445 20.5899 16.4857 20.6935 16.4857H21.4712C21.7538 16.4857 22.0048 16.6509 22.1405 16.8836H20.6935C20.5899 16.8836 20.4905 16.9248 20.4173 16.9981C20.344 17.0713 20.3029 17.1707 20.3029 17.2743C20.3029 17.3779 20.344 17.4772 20.4173 17.5505C20.4905 17.6237 20.5899 17.6649 20.6935 17.6649H22.1391C22.005 17.8846 21.7576 18.026 21.4712 18.026H20.6935V18.0259L20.6908 18.026C20.6124 18.0282 20.5363 18.0535 20.4722 18.0987C20.4081 18.1438 20.3587 18.2069 20.3302 18.28C20.3018 18.3531 20.2955 18.433 20.3122 18.5096C20.3289 18.5863 20.3678 18.6563 20.4241 18.711L20.424 18.711L20.425 18.7119L22.3684 20.5503C22.3685 20.5504 22.3686 20.5504 22.3687 20.5505C22.4058 20.5859 22.4494 20.6136 22.4972 20.6321L22.5318 20.5427L22.4972 20.6321C22.5451 20.6506 22.5962 20.6595 22.6475 20.6582C22.6989 20.6569 22.7494 20.6455 22.7963 20.6246C22.8433 20.6038 22.8856 20.5738 22.9209 20.5366L22.9209 20.5366L22.9218 20.5356C22.9925 20.459 23.0305 20.3578 23.0276 20.2536C23.0247 20.1493 22.9811 20.0503 22.9063 19.9778L22.9056 19.9771L21.6627 18.7959C22.299 18.7206 22.8196 18.2737 22.9782 17.6649H23.4114C23.515 17.6649 23.6143 17.6237 23.6876 17.5505C23.7608 17.4772 23.802 17.3779 23.802 17.2743C23.802 17.1707 23.7608 17.0713 23.6876 16.9981C23.6143 16.9248 23.515 16.8836 23.4114 16.8836H22.9781C22.9421 16.7445 22.8881 16.6107 22.8176 16.4857Z" fill="#F0792E" stroke="#F0792E" stroke-width="0.191631"/>
</svg>
