<svg width="10" height="14" viewBox="0 0 10 14" fill="none" xmlns="http://www.w3.org/2000/svg">
<path d="M7.71266 4.88C7.49932 5.69333 7.09932 6.32 6.51266 6.76C5.92599 7.18667 5.27266 7.5 4.55266 7.7L9.33266 14H6.05266L2.69266 9.5C2.30599 8.98 1.95266 8.60667 1.63266 8.38C1.32599 8.14 0.999323 8.02 0.652656 8.02H0.472656V6.36H1.65266C2.01266 6.36 2.35932 6.34667 2.69266 6.32C3.03932 6.28 3.35266 6.21333 3.63266 6.12C3.92599 6.01333 4.17932 5.86667 4.39266 5.68C4.61932 5.48 4.78599 5.21333 4.89266 4.88H0.112656L0.712656 3.1H4.93266C4.81266 2.64667 4.56599 2.32 4.19266 2.12C3.81932 1.92 3.31266 1.80667 2.67266 1.78H0.112656L0.712656 -9.53674e-07H9.67266L9.07266 1.78H7.39266C7.60599 2.18 7.74599 2.62 7.81266 3.1H9.67266L9.07266 4.88H7.71266Z" fill="#434B53"/>
</svg>
