<svg width="22" height="22" viewBox="0 0 22 22" fill="none" xmlns="http://www.w3.org/2000/svg">
<path d="M12.0876 20.4458H9.36232C9.16318 20.4458 9.00293 20.2926 9.00293 20.1021C9.00293 19.9115 9.16313 19.7583 9.36232 19.7583H12.0876C12.2867 19.7583 12.447 19.9115 12.447 20.1021C12.447 20.2926 12.2867 20.4458 12.0876 20.4458Z" fill="#F0792E"/>
<path d="M16.1888 22H5.25781C4.56451 22 4 21.46 4 20.7969V1.20312C4 0.539967 4.56451 0 5.25781 0H16.1888C16.8821 0 17.4466 0.539967 17.4466 1.20312V20.7969C17.4466 21.46 16.8821 22 16.1888 22ZM5.25781 0.68748C4.95985 0.68748 4.71873 0.91807 4.71873 1.20312V20.7969C4.71873 21.0819 4.9598 21.3125 5.25781 21.3125H16.1888C16.4868 21.3125 16.7279 21.0819 16.7279 20.7969V1.20312C16.7279 0.918114 16.4868 0.68748 16.1888 0.68748H5.25781Z" fill="#F0792E"/>
<path d="M17.0873 18.8919H4.35939C4.16025 18.8919 4 18.7386 4 18.5481V2.8058C4 2.61532 4.1602 2.46204 4.35939 2.46204H17.0873C17.2864 2.46204 17.4466 2.61527 17.4466 2.8058V18.5481C17.4466 18.7386 17.2864 18.8919 17.0873 18.8919ZM4.71873 18.2044H16.7279V3.14956H4.71873V18.2044Z" fill="#F0792E"/>
<path d="M7.73439 7.20865C7.53525 7.20865 7.375 7.05542 7.375 6.86489V5.88092C7.375 5.37533 7.80474 4.96423 8.33335 4.96423H13.709C13.9082 4.96423 14.0684 5.11747 14.0684 5.30799C14.0684 5.49848 13.9082 5.65176 13.709 5.65176H8.33335C8.20157 5.65176 8.09377 5.75487 8.09377 5.88092V6.86489C8.09377 7.05399 7.93357 7.20865 7.73439 7.20865Z" fill="#F0792E"/>
<path d="M12.6764 6.63868C12.585 6.63868 12.4922 6.60572 12.4218 6.53843C12.2811 6.40379 12.2811 6.18608 12.4218 6.05288L13.199 5.3095L12.4054 4.55039C12.2646 4.41576 12.2646 4.19805 12.4054 4.06484C12.5461 3.93021 12.7737 3.93021 12.913 4.06484L13.9597 5.06604C14.027 5.13047 14.0645 5.21784 14.0645 5.3095C14.0645 5.40117 14.027 5.48854 13.9597 5.55297L12.928 6.53981C12.8605 6.60572 12.7677 6.63868 12.6764 6.63868Z" fill="#F0792E"/>
<path d="M13.1101 16.3898H7.73439C7.53525 16.3898 7.375 16.2366 7.375 16.046C7.375 15.8555 7.5352 15.7023 7.73439 15.7023H13.1101C13.2418 15.7023 13.3496 15.5992 13.3496 15.4731V14.4891C13.3496 14.2987 13.5098 14.1454 13.709 14.1454C13.9082 14.1454 14.0684 14.2986 14.0684 14.4891V15.4731C14.0684 15.9773 13.6387 16.3898 13.1101 16.3898Z" fill="#F0792E"/>
<path d="M8.78202 17.391C8.69068 17.391 8.59784 17.358 8.52748 17.2907L7.48078 16.2895C7.41342 16.2251 7.37598 16.1377 7.37598 16.046C7.37598 15.9543 7.41342 15.867 7.48078 15.8025L8.51248 14.8157C8.65323 14.6811 8.88084 14.6811 9.0201 14.8157C9.16085 14.9503 9.16085 15.168 9.0201 15.3012L8.24294 16.0446L9.03656 16.8037C9.17731 16.9384 9.17731 17.1561 9.03656 17.2893C8.9662 17.3566 8.87486 17.391 8.78202 17.391Z" fill="#F0792E"/>
<path d="M12.6773 8.98166C12.8874 8.98166 13.0576 8.81789 13.0576 8.61583C13.0576 8.41391 12.8874 8.25 12.6773 8.25H9.66535C9.45529 8.25 9.28504 8.41391 9.28504 8.61583C9.28504 8.81789 9.45529 8.98166 9.66535 8.98166H10.5286C10.8856 8.98108 11.2099 9.18143 11.3577 9.49381H9.66906C9.45915 9.49381 9.28876 9.65772 9.28876 9.85964C9.28876 10.0617 9.45915 10.2255 9.66906 10.2255H11.3577C11.2085 10.537 10.885 10.7368 10.5286 10.7376H9.66535C9.50936 10.7378 9.36912 10.8294 9.31134 10.9687C9.25355 11.108 9.2898 11.2672 9.40285 11.3705L11.5554 13.3277C11.6266 13.3917 11.7205 13.427 11.8178 13.4265C11.9224 13.4259 12.0223 13.385 12.0954 13.3131C12.1646 13.2428 12.2019 13.1489 12.1991 13.0522C12.1963 12.9555 12.1535 12.8637 12.0803 12.7973L10.6198 11.4693C11.3607 11.4281 11.9855 10.9238 12.1563 10.2292H12.6773C12.8874 10.2292 13.0576 10.0654 13.0576 9.86336C13.0576 9.66129 12.8874 9.49753 12.6773 9.49753H12.1563C12.1121 9.31533 12.0348 9.14185 11.9281 8.98537H12.6773V8.98166Z" fill="#F0792E"/>
</svg>
